<?xml version="1.0" encoding="UTF-8" standalone="no"?>
<!DOCTYPE svg PUBLIC "-//W3C//DTD SVG 1.1//EN" "http://www.w3.org/Graphics/SVG/1.1/DTD/svg11.dtd">
<svg width="186" height="53" viewBox="0 0 2275 650" version="1.1" xmlns="http://www.w3.org/2000/svg" xmlns:xlink="http://www.w3.org/1999/xlink" xml:space="preserve" xmlns:serif="http://www.serif.com/" style="fill-rule:evenodd;clip-rule:evenodd;stroke-linejoin:round;stroke-miterlimit:2;">
    <g id="logo">
        <g transform="matrix(4.17744,0,0,4.17744,0.00257516,-1.68245)">
            <path d="M5.798,78.174C5.187,115.923 36.235,150.076 77.451,150.178C117.356,150.277 149.717,118.05 149.752,78.279C149.787,38.599 117.499,6.244 77.856,6.198C36.453,6.151 5.211,40.313 5.798,78.174ZM155.56,78.349C155.707,120.93 120.554,156.558 76.658,155.994C34.837,155.455 -0.738,120.879 0.011,76.664C0.714,35.195 35.104,-0.496 79.603,0.42C121.114,1.274 155.748,35.437 155.56,78.349Z" style="fill:rgb(187,200,130);fill-rule:nonzero;"/>
        </g>
        <g transform="matrix(4.17744,0,0,4.17744,0.00257516,-1.68245)">
            <path d="M145.474,78.254C145.5,40.954 115.212,10.574 77.947,10.523C40.573,10.472 10.172,40.754 10.126,78.079C10.081,115.44 40.395,145.845 77.712,145.869C115.081,145.893 145.448,115.592 145.474,78.254ZM5.798,78.174C5.211,40.313 36.453,6.151 77.856,6.198C117.499,6.244 149.787,38.599 149.752,78.279C149.717,118.05 117.356,150.277 77.451,150.178C36.235,150.076 5.187,115.923 5.798,78.174Z" style="fill:rgb(34,29,25);fill-rule:nonzero;"/>
        </g>
        <g transform="matrix(4.17744,0,0,4.17744,0.00257516,-1.68245)">
            <path d="M33.15,73.735C32.702,73.778 32.125,73.748 31.601,73.898C29.85,74.4 27.986,74.719 26.406,75.559C23.272,77.224 22.219,79.816 22.827,83.317C23.194,85.426 24.266,87.185 25.516,88.871C28.78,93.269 33.018,96.523 37.812,99.016C45.715,103.125 53.692,107.092 61.659,111.077C63.227,111.861 64.882,112.477 66.511,113.133C70.246,114.637 74.07,114.956 77.868,113.524C85.565,110.622 93.26,107.707 100.873,104.594C103.696,103.44 106.524,102.027 108.931,100.185C113.209,96.912 117.195,93.254 121.234,89.678C122.014,88.987 122.591,87.991 123.054,87.036C123.864,85.367 123.77,83.67 122.569,82.186C121.457,80.813 119.903,80.934 118.368,81.152C117.815,81.23 117.276,81.398 116.725,81.49C116.364,81.551 115.992,81.548 115.626,81.574C115.559,81.461 115.493,81.348 115.427,81.235C116.696,79.994 117.882,78.649 119.256,77.537C121.113,76.033 123.204,74.813 125.041,73.287C130.882,68.432 132.08,62.222 128.272,55.648C126.377,52.374 124.13,49.291 121.895,46.229C119.006,42.271 115.084,40.153 110.136,39.687C105.953,39.292 102.05,40.28 98.107,41.339C91.477,43.119 84.764,44.122 77.854,43.904C71.988,43.719 66.102,43.718 60.239,43.964C54.886,44.188 49.918,45.918 45.377,48.845C36.358,54.658 32.918,63.163 33.15,73.735ZM145.474,78.254C145.448,115.592 115.081,145.893 77.712,145.869C40.395,145.845 10.081,115.44 10.126,78.079C10.172,40.754 40.573,10.472 77.947,10.523C115.212,10.574 145.5,40.954 145.474,78.254Z" style="fill:rgb(188,199,130);fill-rule:nonzero;"/>
        </g>
        <g transform="matrix(4.17744,0,0,4.17744,0.00257516,-1.68245)">
            <path d="M58.096,99.975C58.07,99.816 58.044,99.658 58.018,99.5C58.135,99.405 58.238,99.264 58.372,99.221C62.024,98.06 65.65,96.847 69.504,96.43C76.57,95.665 83.717,95.511 90.658,93.775C92.345,93.352 94.032,92.841 95.625,92.153C96.611,91.728 97.144,90.735 97.001,89.568C96.867,88.471 96.079,87.853 95.13,87.598C93.789,87.238 92.399,86.863 91.026,86.851C85.752,86.804 80.476,86.96 75.201,86.917C72.412,86.894 69.6,86.797 66.841,86.418C60.823,85.591 55.186,83.407 49.545,81.248C45.297,79.622 41.011,78.088 36.7,76.64C34.041,75.747 31.474,76.407 29.083,77.709C27.387,78.632 26.494,80.123 26.738,82.067C26.869,83.118 27.195,84.189 27.655,85.144C29.037,88.02 30.931,90.542 33.381,92.605C37.638,96.19 42.543,98.733 47.513,101.123C54.454,104.461 61.153,108.317 68.487,110.827C71.255,111.774 73.938,111.969 76.688,110.992C81.504,109.282 86.264,107.399 91.135,105.868C102.037,102.443 111.215,96.377 119.104,88.212C119.978,87.307 120.232,86.305 120.029,85.147C119.808,83.888 119.011,83.277 117.811,83.672C116.04,84.257 114.192,84.819 112.637,85.801C109.094,88.039 105.718,90.54 102.253,92.903C101.437,93.459 100.588,94.077 99.661,94.343C97.438,94.981 95.183,95.582 92.901,95.923C84.602,97.162 76.296,98.368 67.972,99.419C64.709,99.831 61.39,99.802 58.096,99.975ZM121.185,73.34C120.84,73.434 120.475,73.649 120.153,73.597C119.41,73.478 118.449,73.451 118.014,72.982C117.388,72.305 118.006,71.494 118.544,70.873C118.715,70.675 118.941,70.526 119.155,70.344C119.879,71.718 120.233,71.794 121.24,70.682C121.713,70.161 122.082,69.519 122.383,68.878C123.004,67.554 123.548,66.195 124.123,64.85C124.225,64.864 124.326,64.878 124.428,64.892C124.428,65.909 124.507,66.933 124.406,67.94C124.305,68.947 124.025,69.936 123.823,70.932C123.958,70.961 124.093,70.99 124.228,71.019C126.12,68.814 127.468,66.376 127.525,63.431C126.61,63.521 125.792,63.601 124.974,63.68C124.915,63.511 124.856,63.342 124.797,63.173C125.656,62.611 126.514,62.049 127.473,61.422C127.246,59.231 126.313,57.121 124.99,55.202C122.691,51.867 120.114,48.738 116.935,46.211C115.49,45.063 113.823,44.076 112.104,43.417C108.301,41.958 104.425,41.911 100.499,43.246C92.072,46.11 83.441,47.143 74.522,46.401C69.929,46.019 65.251,46.2 60.643,46.546C53.631,47.073 47.435,49.749 42.607,54.976C37.992,59.974 35.882,65.914 36.689,72.782C36.799,73.716 37.25,74.155 38.093,74.466C44.386,76.787 50.633,79.236 56.959,81.462C62.303,83.343 67.876,84.27 73.533,84.433C77.606,84.55 81.691,84.446 85.765,84.287C89.032,84.159 92.211,84.637 95.407,85.164C97.183,85.457 98.463,86.356 99.171,87.955C99.607,88.941 99.802,90.034 100.153,91.241C100.934,90.769 101.905,90.249 102.806,89.627C106.943,86.772 110.654,83.473 113.684,79.418C115.105,77.517 116.885,75.995 119.177,75.107C119.995,74.79 120.652,74.058 121.381,73.514C121.392,73.42 121.403,73.325 121.414,73.231C121.338,73.267 121.261,73.304 121.185,73.34ZM33.15,73.735C32.918,63.163 36.358,54.658 45.377,48.845C49.918,45.918 54.886,44.188 60.239,43.964C66.102,43.718 71.988,43.719 77.854,43.904C84.764,44.122 91.477,43.119 98.107,41.339C102.05,40.28 105.953,39.292 110.136,39.687C115.084,40.153 119.006,42.271 121.895,46.229C124.13,49.291 126.377,52.374 128.272,55.648C132.08,62.222 130.882,68.432 125.041,73.287C123.204,74.813 121.113,76.033 119.256,77.537C117.882,78.649 116.696,79.994 115.427,81.235C115.493,81.348 115.559,81.461 115.626,81.574C115.992,81.548 116.364,81.551 116.725,81.49C117.276,81.398 117.815,81.23 118.368,81.152C119.903,80.934 121.457,80.813 122.569,82.186C123.77,83.67 123.864,85.367 123.054,87.036C122.591,87.991 122.014,88.987 121.234,89.678C117.195,93.254 113.209,96.912 108.931,100.185C106.524,102.027 103.696,103.44 100.873,104.594C93.26,107.707 85.565,110.622 77.868,113.524C74.07,114.956 70.246,114.637 66.511,113.133C64.882,112.477 63.227,111.861 61.659,111.077C53.692,107.092 45.715,103.125 37.812,99.016C33.018,96.523 28.78,93.269 25.516,88.871C24.266,87.185 23.194,85.426 22.827,83.317C22.219,79.816 23.272,77.224 26.406,75.559C27.986,74.719 29.85,74.4 31.601,73.898C32.125,73.748 32.702,73.778 33.15,73.735Z" style="fill:rgb(37,30,26);fill-rule:nonzero;"/>
        </g>
        <g transform="matrix(4.17744,0,0,4.17744,0.00257516,-1.68245)">
            <path d="M124.387,63.258C123.424,62.697 122.67,62.198 121.858,61.826C121.67,61.74 121.181,62.018 121.025,62.256C120.917,62.419 121.058,62.967 121.236,63.06C122.099,63.512 122.987,64.066 124.387,63.258ZM113.355,56.553C113.472,55.045 113.273,53.688 112.355,52.53C111.388,51.312 109.664,51 108.371,51.765C107.073,52.534 106.597,54.019 107.176,55.498C107.737,56.929 108.888,57.475 110.568,57.118C111.462,56.929 112.359,56.755 113.355,56.553ZM101.453,49.614C100.948,47.865 99.777,46.989 98.141,46.921C96.193,46.839 94.257,47.165 93.343,49.153C92.3,51.422 90.872,53.229 88.61,54.339C88.292,54.495 88.017,54.745 87.739,54.973C85.179,57.066 84.849,61.814 87.091,64.252C88.794,66.104 92.217,66.208 93.305,64.697C92.726,64.346 91.86,64.117 91.625,63.6C91.341,62.98 91.317,61.927 91.675,61.395C92.349,60.395 93.371,59.629 94.26,58.778C95.151,57.926 96.129,57.151 96.933,56.226C97.596,55.463 97.692,54.499 97.334,53.559C96.488,54.472 95.786,55.394 94.92,56.119C94.038,56.856 92.979,57.377 92.025,58.033C90.514,59.073 89.384,60.358 89.423,62.347C89.426,62.505 89.279,62.665 89.192,62.845C87.694,61.591 87.378,60.397 87.988,58.796C88.492,57.472 89.267,56.438 90.596,55.826C92.319,55.033 93.608,53.798 94.452,52.052C94.842,51.243 95.468,50.517 96.103,49.866C97.127,48.815 98.352,48.389 99.803,49.039C100.333,49.277 100.902,49.425 101.453,49.614ZM121.382,73.515C120.652,74.058 119.995,74.79 119.177,75.107C116.885,75.995 115.105,77.517 113.684,79.418C110.654,83.473 106.943,86.772 102.806,89.627C101.905,90.249 100.934,90.769 100.153,91.241C99.802,90.034 99.607,88.941 99.171,87.955C98.463,86.356 97.183,85.457 95.407,85.164C92.211,84.637 89.032,84.159 85.765,84.287C81.691,84.446 77.606,84.55 73.533,84.433C67.876,84.27 62.303,83.343 56.959,81.462C50.633,79.236 44.386,76.787 38.093,74.466C37.25,74.155 36.799,73.716 36.689,72.782C35.882,65.914 37.992,59.974 42.607,54.976C47.435,49.749 53.631,47.073 60.643,46.546C65.251,46.2 69.929,46.019 74.522,46.401C83.441,47.143 92.072,46.11 100.499,43.246C104.425,41.911 108.301,41.958 112.104,43.417C113.823,44.076 115.49,45.063 116.935,46.211C120.114,48.738 122.691,51.867 124.99,55.202C126.313,57.121 127.246,59.231 127.473,61.422C126.514,62.049 125.656,62.611 124.797,63.173C124.856,63.342 124.915,63.511 124.974,63.68C125.792,63.601 126.61,63.521 127.525,63.431C127.468,66.376 126.12,68.814 124.228,71.019C124.093,70.99 123.958,70.961 123.823,70.932C124.025,69.936 124.305,68.947 124.406,67.94C124.507,66.933 124.428,65.909 124.428,64.892C124.326,64.878 124.225,64.864 124.123,64.85C123.548,66.195 123.004,67.554 122.383,68.878C122.082,69.519 121.713,70.161 121.24,70.682C120.233,71.794 119.879,71.718 119.155,70.344C118.941,70.526 118.715,70.675 118.544,70.873C118.006,71.494 117.388,72.305 118.014,72.982C118.449,73.451 119.41,73.478 120.153,73.597C120.475,73.649 120.84,73.434 121.185,73.34C121.251,73.398 121.316,73.457 121.382,73.515Z" style="fill:rgb(212,219,171);fill-rule:nonzero;"/>
        </g>
        <g transform="matrix(4.17744,0,0,4.17744,0.00257516,-1.68245)">
            <path d="M58.096,99.975C61.39,99.802 64.709,99.831 67.972,99.419C76.296,98.368 84.602,97.162 92.901,95.923C95.183,95.582 97.438,94.981 99.661,94.343C100.588,94.077 101.437,93.459 102.253,92.903C105.718,90.54 109.094,88.039 112.637,85.801C114.192,84.819 116.04,84.257 117.811,83.672C119.011,83.277 119.808,83.888 120.029,85.147C120.232,86.305 119.978,87.307 119.104,88.212C111.215,96.377 102.037,102.443 91.135,105.868C86.264,107.399 81.504,109.282 76.688,110.992C73.938,111.969 71.255,111.774 68.487,110.827C61.153,108.317 54.454,104.461 47.513,101.123C42.543,98.733 37.638,96.19 33.381,92.605C30.931,90.542 29.037,88.02 27.655,85.144C27.195,84.189 26.869,83.118 26.738,82.067C26.494,80.123 27.387,78.632 29.083,77.709C31.474,76.407 34.041,75.747 36.7,76.64C41.011,78.088 45.297,79.622 49.545,81.248C55.186,83.407 60.823,85.591 66.841,86.418C69.6,86.797 72.412,86.894 75.201,86.917C80.476,86.96 85.752,86.804 91.026,86.851C92.399,86.863 93.789,87.238 95.13,87.598C96.079,87.853 96.867,88.471 97.001,89.568C97.144,90.735 96.611,91.728 95.625,92.153C94.032,92.841 92.345,93.352 90.658,93.775C83.717,95.511 76.57,95.665 69.504,96.43C65.65,96.847 62.024,98.06 58.372,99.221C58.238,99.264 58.135,99.405 58.018,99.5C58.044,99.658 58.07,99.816 58.096,99.975Z" style="fill:rgb(213,219,169);fill-rule:nonzero;"/>
        </g>
        <g transform="matrix(4.17744,0,0,4.17744,0.00257516,-1.68245)">
            <path d="M121.185,73.34C121.261,73.304 121.338,73.267 121.414,73.231C121.403,73.325 121.392,73.42 121.381,73.515C121.316,73.457 121.251,73.398 121.185,73.34Z" style="fill:rgb(212,219,171);fill-rule:nonzero;"/>
        </g>
        <g transform="matrix(4.17744,0,0,4.17744,0.00257516,-1.68245)">
            <path d="M101.453,49.614C100.902,49.425 100.333,49.277 99.803,49.039C98.352,48.389 97.127,48.815 96.103,49.866C95.468,50.517 94.842,51.243 94.452,52.052C93.608,53.798 92.319,55.033 90.596,55.826C89.267,56.438 88.492,57.472 87.988,58.796C87.378,60.397 87.694,61.591 89.192,62.845C89.279,62.665 89.426,62.505 89.423,62.347C89.384,60.358 90.514,59.073 92.025,58.033C92.979,57.377 94.038,56.856 94.92,56.119C95.786,55.394 96.488,54.472 97.334,53.559C97.692,54.499 97.596,55.463 96.933,56.226C96.129,57.151 95.151,57.926 94.26,58.778C93.371,59.629 92.349,60.395 91.675,61.395C91.317,61.927 91.341,62.98 91.625,63.6C91.86,64.117 92.726,64.346 93.305,64.697C92.217,66.208 88.794,66.104 87.091,64.252C84.849,61.814 85.179,57.066 87.739,54.973C88.017,54.745 88.292,54.495 88.61,54.339C90.872,53.229 92.3,51.422 93.343,49.153C94.257,47.165 96.193,46.839 98.141,46.921C99.777,46.989 100.948,47.865 101.453,49.614Z" style="fill:rgb(38,32,28);fill-rule:nonzero;"/>
        </g>
        <g transform="matrix(4.17744,0,0,4.17744,0.00257516,-1.68245)">
            <path d="M113.355,56.553C112.359,56.755 111.462,56.929 110.568,57.118C108.888,57.475 107.737,56.929 107.176,55.498C106.597,54.019 107.073,52.534 108.371,51.765C109.664,51 111.388,51.312 112.355,52.53C113.273,53.688 113.472,55.045 113.355,56.553Z" style="fill:rgb(37,30,26);fill-rule:nonzero;"/>
        </g>
        <g transform="matrix(4.17744,0,0,4.17744,0.00257516,-1.68245)">
            <path d="M124.387,63.258C122.987,64.066 122.099,63.512 121.236,63.06C121.058,62.967 120.917,62.419 121.025,62.256C121.181,62.018 121.67,61.74 121.858,61.826C122.67,62.198 123.424,62.697 124.387,63.258Z" style="fill:rgb(48,42,37);fill-rule:nonzero;"/>
        </g>
    </g>
    <g id="szoveg" transform="matrix(1,0,0,1,0,-0.540704)">
        <g transform="matrix(4.16667,0,0,4.16667,0,0)">
            <path d="M328.95,88.946L325.078,88.946L325.078,67.166C326.799,67.166 328.541,67.126 330.277,67.211C330.527,67.223 330.834,67.802 330.969,68.171C332.741,73.035 334.487,77.908 336.279,82.891C336.461,82.331 336.618,81.81 336.799,81.297C338.343,76.933 339.904,72.575 341.426,68.203C341.701,67.411 342.104,67.084 342.98,67.133C344.445,67.214 345.917,67.155 347.462,67.155L347.462,88.906L343.576,88.906L343.576,73.164C343.515,73.149 343.454,73.133 343.393,73.117C343.286,73.328 343.154,73.53 343.074,73.75C341.337,78.554 339.572,83.348 337.9,88.174C337.526,89.252 336.786,88.942 336.083,89.004C335.345,89.069 334.862,88.944 334.563,88.088C332.813,83.077 330.987,78.094 329.185,73.102C329.134,72.96 329.075,72.821 328.95,72.502L328.95,88.946Z" style="fill:rgb(55,66,52);fill-rule:nonzero;"/>
        </g>
        <g transform="matrix(4.16667,0,0,4.16667,0,0)">
            <path d="M194.56,30.429C193.002,34.691 191.445,38.955 189.885,43.217C189.665,43.817 189.344,44.395 189.229,45.013C189.026,46.113 188.412,46.327 187.378,46.322C186.419,46.317 185.999,46.031 185.675,45.119C183.877,40.055 182.003,35.018 180.149,29.956L180.149,46.21L176.269,46.21L176.269,24.44C177.98,24.44 179.683,24.4 181.382,24.481C181.652,24.494 182.009,25.009 182.137,25.361C183.922,30.252 185.675,35.156 187.451,40.101C188.414,37.359 189.369,34.62 190.337,31.886C191.082,29.779 191.872,27.687 192.583,25.569C192.863,24.736 193.266,24.356 194.205,24.412C195.667,24.499 197.138,24.435 198.67,24.435L198.67,46.195L194.765,46.195L194.765,30.421C194.697,30.423 194.629,30.426 194.56,30.429Z" style="fill:rgb(55,66,52);fill-rule:nonzero;"/>
        </g>
        <g transform="matrix(4.16667,0,0,4.16667,0,0)">
            <path d="M218.537,67.157C219.797,67.157 220.959,67.094 222.107,67.192C222.49,67.225 222.943,67.596 223.186,67.939C226.723,72.914 230.23,77.911 233.678,82.809L233.678,67.227L237.558,67.227L237.558,88.987C236.266,88.987 234.961,89.045 233.667,88.947C233.343,88.922 233,88.439 232.76,88.099C229.265,83.154 225.787,78.197 222.387,73.36L222.387,88.9L218.537,88.9L218.537,67.157Z" style="fill:rgb(55,66,52);fill-rule:nonzero;"/>
        </g>
        <g transform="matrix(4.16667,0,0,4.16667,0,0)">
            <path d="M541.595,77.662C541.229,76.397 540.932,74.69 540.243,73.16C539.239,70.933 537.225,70.065 534.864,70.054C532.489,70.042 530.604,71.002 529.463,73.157C528.171,75.597 528.037,78.189 528.637,80.829C529.382,84.102 531.591,86.034 534.572,86.108C537.862,86.189 540.059,84.53 540.996,81.161C541.27,80.172 541.351,79.129 541.595,77.662ZM545.561,79.316C545.468,82.173 544.408,85.784 540.703,87.955C537.017,90.116 533.116,90.123 529.374,88.161C525.825,86.3 524.449,82.994 524.203,79.145C524.016,76.209 524.413,73.376 526.138,70.911C528.756,67.17 532.572,66.148 536.811,66.826C542.568,67.746 545.567,71.792 545.561,79.316Z" style="fill:rgb(55,66,52);fill-rule:nonzero;"/>
        </g>
        <g transform="matrix(4.16667,0,0,4.16667,0,0)">
            <path d="M303.962,27.697L303.962,34.751C306.02,34.471 307.975,34.365 309.841,33.901C311.419,33.508 311.997,32.19 311.809,30.391C311.679,29.149 310.816,28.234 309.316,28.055C307.584,27.848 305.831,27.814 303.962,27.697ZM303.861,38.013L303.861,46.178L299.903,46.178L299.903,24.435C301.074,24.435 302.259,24.388 303.439,24.445C305.943,24.565 308.481,24.522 310.937,24.943C314.173,25.497 315.906,27.546 316.049,30.685C316.171,33.372 315.069,35.745 311.835,36.946C311.578,37.041 311.336,37.177 310.9,37.381C313.035,40.322 315.126,43.201 317.359,46.277C315.752,46.277 314.37,46.335 313,46.239C312.619,46.212 312.18,45.793 311.922,45.441C310.485,43.475 309.091,41.477 307.692,39.484C306.409,37.658 306.414,37.655 303.861,38.013Z" style="fill:rgb(55,66,52);fill-rule:nonzero;"/>
        </g>
        <g transform="matrix(4.16667,0,0,4.16667,0,0)">
            <path d="M294.605,70.419L294.605,77.475C296.667,77.191 298.623,77.084 300.489,76.617C302.074,76.22 302.643,74.91 302.449,73.102C302.316,71.865 301.449,70.952 299.947,70.773C298.216,70.567 296.463,70.534 294.605,70.419ZM301.533,80.104C303.703,83.087 305.781,85.942 308.004,88.997C306.393,88.997 305.011,89.055 303.641,88.959C303.26,88.933 302.82,88.514 302.563,88.162C301.126,86.196 299.617,84.267 298.37,82.183C297.436,80.622 296.243,80.353 294.545,80.737L294.545,88.898L290.543,88.898L290.543,67.233C290.871,67.208 291.217,67.146 291.56,67.161C294.902,67.303 298.278,67.215 301.576,67.678C304.82,68.134 306.544,70.262 306.689,73.404C306.812,76.09 305.707,78.467 302.476,79.666C302.219,79.761 301.977,79.896 301.533,80.104Z" style="fill:rgb(55,66,52);fill-rule:nonzero;"/>
        </g>
        <g transform="matrix(4.16667,0,0,4.16667,0,0)">
            <path d="M246.559,27.621C244.045,27.594 241.678,27.294 239.391,27.599C234.562,28.245 232.492,32.482 232.941,36.704C233.283,39.918 234.703,42.309 237.992,43.034C239.665,43.403 241.443,43.294 243.285,43.408L243.285,37.95L238.484,37.95L238.484,34.515L247.29,34.515C247.346,34.836 247.431,35.097 247.431,35.358C247.441,38.477 247.463,41.595 247.406,44.713C247.399,45.113 247.032,45.774 246.711,45.859C242.593,46.948 238.463,47.363 234.404,45.595C231.094,44.153 229.335,41.463 228.859,38.022C228.305,34.017 229.072,30.282 232.07,27.297C234.109,25.267 236.663,24.191 239.476,24.035C241.484,23.923 243.518,24.281 245.54,24.439C246.316,24.5 246.643,24.907 246.572,25.709C246.51,26.417 246.559,27.135 246.559,27.621Z" style="fill:rgb(55,66,52);fill-rule:nonzero;"/>
        </g>
        <g transform="matrix(4.16667,0,0,4.16667,0,0)">
            <path d="M258.432,85.762L258.432,80.61L253.576,80.61L253.576,77.323L262.558,77.323L262.558,82.598C262.558,84.238 262.599,85.878 262.527,87.514C262.51,87.887 262.169,88.488 261.867,88.569C257.667,89.686 253.454,90.111 249.34,88.232C246.059,86.734 244.373,83.987 243.95,80.542C243.444,76.429 244.295,72.616 247.514,69.718C250.685,66.863 254.549,66.352 258.625,66.785C258.782,66.802 258.936,66.861 259.092,66.885C261.966,67.324 262.151,67.608 261.588,70.355C259.203,70.322 256.836,70.017 254.549,70.315C249.687,70.947 247.616,75.181 248.058,79.387C248.381,82.467 249.668,84.807 252.843,85.698C254.673,86.212 256.522,86.3 258.432,85.762Z" style="fill:rgb(55,66,52);fill-rule:nonzero;"/>
        </g>
        <g transform="matrix(4.16667,0,0,4.16667,0,0)">
            <path d="M365.97,80.059C365.043,77.53 364.165,75.138 363.177,72.443C362.189,75.159 361.318,77.553 360.406,80.059L365.97,80.059ZM352.606,89.001C353.987,85.515 355.29,82.219 356.599,78.925C357.999,75.401 359.421,71.887 360.795,68.353C361.117,67.527 361.482,67.088 362.501,67.123C365.035,67.212 365.035,67.148 365.957,69.47C368.402,75.626 370.85,81.781 373.293,87.938C373.409,88.23 373.497,88.532 373.654,88.996C372.328,88.996 371.108,89.043 369.897,88.96C369.627,88.942 369.289,88.512 369.154,88.198C368.636,86.988 368.145,85.763 367.728,84.515C367.475,83.762 367.109,83.435 366.268,83.461C364.231,83.524 362.19,83.516 360.153,83.464C359.362,83.443 358.917,83.644 358.657,84.445C358.251,85.695 357.666,86.888 357.258,88.138C357.024,88.851 356.637,89.047 355.941,89.014C354.906,88.965 353.868,89.001 352.606,89.001Z" style="fill:rgb(55,66,52);fill-rule:nonzero;"/>
        </g>
        <g transform="matrix(4.16667,0,0,4.16667,0,0)">
            <path d="M286.763,37.327C285.848,34.828 284.969,32.43 283.979,29.727C282.995,32.426 282.123,34.816 281.207,37.327L286.763,37.327ZM294.416,46.279C293.163,46.279 292.003,46.333 290.855,46.244C290.536,46.22 290.115,45.833 289.974,45.51C289.415,44.231 289.008,42.885 288.415,41.625C288.232,41.237 287.643,40.816 287.225,40.8C285.07,40.717 282.909,40.783 280.751,40.748C280.095,40.738 279.747,40.932 279.523,41.581C279.069,42.901 278.566,44.21 277.976,45.473C277.808,45.832 277.286,46.207 276.895,46.244C275.799,46.349 274.687,46.281 273.419,46.281C274.454,43.645 275.421,41.162 276.405,38.685C278.143,34.308 279.914,29.944 281.616,25.553C281.962,24.659 282.436,24.382 283.382,24.41C285.81,24.482 285.818,24.429 286.687,26.608C289.171,32.835 291.65,39.064 294.125,45.295C294.239,45.581 294.301,45.886 294.416,46.279Z" style="fill:rgb(55,66,52);fill-rule:nonzero;"/>
        </g>
        <g transform="matrix(4.16667,0,0,4.16667,0,0)">
            <path d="M407.339,72.424C406.343,75.171 405.476,77.565 404.569,80.068L410.125,80.068C409.22,77.585 408.342,75.175 407.339,72.424ZM417.789,88.998C416.505,88.998 415.314,89.043 414.131,88.965C413.847,88.946 413.473,88.566 413.343,88.265C412.806,87.02 412.319,85.752 411.871,84.472C411.631,83.784 411.303,83.441 410.502,83.462C408.385,83.519 406.265,83.512 404.147,83.465C403.421,83.449 403.081,83.701 402.849,84.378C402.396,85.698 401.883,87.002 401.314,88.276C401.175,88.589 400.736,88.944 400.412,88.967C399.263,89.051 398.105,89 396.781,89C397.687,86.692 398.536,84.507 399.402,82.329C401.245,77.693 403.127,73.072 404.921,68.418C405.298,67.442 405.771,67.089 406.827,67.128C409.165,67.214 409.177,67.149 410.033,69.294C412.518,75.521 414.995,81.751 417.471,87.981C417.586,88.27 417.659,88.576 417.789,88.998Z" style="fill:rgb(55,66,52);fill-rule:nonzero;"/>
        </g>
        <g transform="matrix(4.16667,0,0,4.16667,0,0)">
            <path d="M217.166,37.345C216.256,34.859 215.371,32.44 214.375,29.716C213.385,32.447 212.516,34.842 211.608,37.345L217.166,37.345ZM224.863,46.281L223.263,46.281C220.588,46.281 220.588,46.281 219.64,43.712C218.552,40.761 218.552,40.761 215.44,40.761C214.161,40.761 212.875,40.844 211.605,40.736C210.525,40.644 210.036,41.069 209.728,42.05C209.358,43.227 208.891,44.381 208.368,45.5C208.21,45.838 207.742,46.215 207.388,46.245C206.28,46.341 205.158,46.281 203.835,46.281C204.503,44.55 205.112,42.933 205.751,41.327C207.861,36.025 209.993,30.731 212.085,25.421C212.374,24.689 212.741,24.398 213.57,24.411C216.241,24.454 216.232,24.418 217.196,26.851C219.608,32.935 222.03,39.015 224.445,45.098C224.576,45.427 224.682,45.766 224.863,46.281Z" style="fill:rgb(55,66,52);fill-rule:nonzero;"/>
        </g>
        <g transform="matrix(4.16667,0,0,4.16667,0,0)">
            <path d="M478.917,67.214L492.942,67.214L492.942,70.481L482.984,70.481L482.984,76L491.502,76L491.502,79.362L482.983,79.362L482.983,85.577L493.586,85.577L493.586,88.923L478.917,88.923L478.917,67.214Z" style="fill:rgb(55,66,52);fill-rule:nonzero;"/>
        </g>
        <g transform="matrix(4.16667,0,0,4.16667,0,0)">
            <path d="M211.463,67.257L211.463,70.477L201.466,70.477L201.466,75.995L209.979,75.995L209.979,79.357L201.465,79.357L201.465,85.574L212.062,85.574L212.062,88.92L197.399,88.92L197.399,67.257L211.463,67.257Z" style="fill:rgb(55,66,52);fill-rule:nonzero;"/>
        </g>
        <g transform="matrix(4.16667,0,0,4.16667,0,0)">
            <path d="M269.632,67.218L283.666,67.218L283.666,70.49L273.698,70.49L273.698,76.008L282.226,76.008L282.226,79.371L273.698,79.371L273.698,85.585L284.311,85.585L284.311,88.928L269.632,88.928L269.632,67.218Z" style="fill:rgb(55,66,52);fill-rule:nonzero;"/>
        </g>
        <g transform="matrix(4.16667,0,0,4.16667,0,0)">
            <path d="M473.783,67.155C472.652,70.062 471.591,72.81 470.513,75.551C468.906,79.638 467.257,83.709 465.696,87.813C465.359,88.698 464.959,89.055 463.98,89.027C461.595,88.959 461.584,89.015 460.709,86.798C458.292,80.671 455.88,74.541 453.472,68.41C453.331,68.053 453.237,67.677 453.074,67.158C454.436,67.158 455.634,67.092 456.816,67.202C457.13,67.231 457.519,67.753 457.661,68.13C459.571,73.167 461.443,78.219 463.421,83.524C464.05,81.811 464.606,80.278 465.175,78.749C466.484,75.232 467.815,71.723 469.097,68.197C469.383,67.41 469.787,67.057 470.662,67.136C471.612,67.221 472.575,67.155 473.783,67.155Z" style="fill:rgb(55,66,52);fill-rule:nonzero;"/>
        </g>
        <g transform="matrix(4.16667,0,0,4.16667,0,0)">
            <path d="M336.305,127.746L336.305,109.971L338.81,109.971L338.81,131.554C336.507,132.037 336.334,131.956 335.039,130.093C331.374,124.819 327.698,119.553 324.025,114.285C323.938,114.16 323.832,114.049 323.679,113.863L323.679,131.634L321.237,131.634L321.237,110.088C323.073,109.51 323.652,109.704 324.716,111.233C328.407,116.538 332.1,121.84 335.795,127.143C335.88,127.264 335.986,127.371 336.305,127.746Z" style="fill:rgb(55,66,52);fill-rule:nonzero;"/>
        </g>
        <g transform="matrix(4.16667,0,0,4.16667,0,0)">
            <path d="M211.974,120.816C212.088,120.783 212.202,120.749 212.317,120.715C211.818,118.981 211.519,117.154 210.773,115.533C209.62,113.03 207.393,111.847 204.682,111.825C202.003,111.803 199.75,112.811 198.437,115.295C196.581,118.806 196.482,122.45 198.251,125.968C200.479,130.397 206.318,131.15 209.76,127.559C211.556,125.685 212.035,123.326 211.974,120.816ZM214.862,120.885C214.78,124.576 213.779,127.848 210.715,130.24C206.005,133.916 196.913,132.754 194.808,124.966C193.614,120.548 193.99,116.344 197.001,112.661C198.685,110.602 200.969,109.613 203.562,109.415C210.574,108.878 215.001,113.879 214.862,120.885Z" style="fill:rgb(55,66,52);fill-rule:nonzero;"/>
        </g>
        <g transform="matrix(4.16667,0,0,4.16667,0,0)">
            <path d="M408.39,112.418C407.38,112.244 406.373,112.036 405.357,111.902C401.488,111.395 396.942,112.745 395.17,116.916C393.59,120.633 394.082,126.333 398.055,128.564C400.568,129.975 403.308,130.027 406.073,129.496C406.289,129.455 406.587,129.064 406.592,128.829C406.634,126.883 406.616,124.935 406.616,122.844L401.671,122.844L401.671,120.522L409.463,120.522L409.463,125.818C409.463,127.138 409.4,128.462 409.484,129.776C409.549,130.798 409.202,131.311 408.191,131.544C403.92,132.535 399.753,132.71 395.822,130.301C393.869,129.104 392.719,127.315 392.085,125.204C390.965,121.474 391.288,117.862 393.372,114.511C395.495,111.095 398.778,109.677 402.632,109.423C403.893,109.34 405.179,109.497 406.442,109.64C408.689,109.895 408.812,110.103 408.39,112.418Z" style="fill:rgb(55,66,52);fill-rule:nonzero;"/>
        </g>
        <g transform="matrix(4.16667,0,0,4.16667,0,0)">
            <path d="M437.984,70.466C435.989,70.343 434.056,69.935 432.203,70.167C427.062,70.811 425.52,75.217 425.897,79.307C426.08,81.288 426.629,83.149 428.261,84.498C430.199,86.1 432.474,86.274 434.829,86.023C435.929,85.906 437.016,85.666 438.249,85.458C438.249,86.423 438.295,87.335 438.22,88.236C438.198,88.495 437.862,88.888 437.61,88.942C434.163,89.688 430.715,89.898 427.395,88.42C424.125,86.964 422.36,84.306 421.866,80.837C421.299,76.848 421.858,73.085 424.734,70.003C427.585,66.947 431.285,66.26 435.185,66.794C438.725,67.279 437.94,66.778 438.025,70.211C438.028,70.327 437.987,70.444 437.984,70.466Z" style="fill:rgb(55,66,52);fill-rule:nonzero;"/>
        </g>
        <g transform="matrix(4.16667,0,0,4.16667,0,0)">
            <path d="M239.41,109.929L241.903,109.929L241.903,119.132L253.424,119.132L253.424,109.953L256.027,109.953L256.027,131.613L253.469,131.613L253.469,121.721L241.991,121.721L241.991,131.618L239.41,131.618L239.41,109.929Z" style="fill:rgb(55,66,52);fill-rule:nonzero;"/>
        </g>
        <g transform="matrix(4.16667,0,0,4.16667,0,0)">
            <path d="M251.953,24.435C253.274,24.435 254.36,24.353 255.424,24.471C255.926,24.526 256.571,24.843 256.834,25.248C258.639,28.021 260.359,30.85 262.21,33.828C263.684,31.465 265.252,29.302 266.436,26.946C267.456,24.917 268.785,24.017 271.013,24.424C271.429,24.5 271.87,24.435 272.544,24.435C271.248,26.485 270.066,28.358 268.88,30.229C267.789,31.949 266.795,33.742 265.571,35.361C264.485,36.797 264.157,38.298 264.242,40.04C264.342,42.064 264.266,44.096 264.266,46.202L260.2,46.202C260.2,44.12 260.097,42.051 260.23,39.997C260.346,38.221 259.823,36.777 258.845,35.325C256.682,32.113 254.65,28.813 252.569,25.546C252.383,25.254 252.232,24.941 251.953,24.435Z" style="fill:rgb(55,66,52);fill-rule:nonzero;"/>
        </g>
        <g transform="matrix(4.16667,0,0,4.16667,0,0)">
            <path d="M344.606,109.949L347.226,109.949C347.249,110.366 347.292,110.785 347.293,111.205C347.299,115.44 347.3,119.676 347.298,123.912C347.297,126.233 348.014,128.222 350.258,129.207C352.602,130.238 354.976,130.077 357.045,128.488C358.342,127.491 358.844,125.979 358.851,124.35C358.869,120.035 358.863,115.719 358.866,111.404L358.866,109.987L361.599,109.987C361.632,110.258 361.701,110.561 361.701,110.865C361.708,115.14 361.727,119.416 361.686,123.691C361.677,124.636 361.543,125.605 361.297,126.518C360.366,129.975 357.769,132.043 354.184,132.171C352.998,132.214 351.775,132.193 350.621,131.952C346.95,131.186 344.893,129.035 344.709,125.304C344.464,120.325 344.534,115.332 344.474,110.344C344.473,110.235 344.545,110.125 344.606,109.949Z" style="fill:rgb(55,66,52);fill-rule:nonzero;"/>
        </g>
        <g transform="matrix(4.16667,0,0,4.16667,0,0)">
            <path d="M471.8,109.951L474.496,109.951L474.496,111.309C474.497,115.505 474.5,119.7 474.498,123.896C474.497,126.162 475.162,128.128 477.338,129.146C479.573,130.19 481.847,130.094 483.94,128.702C485.459,127.691 486.029,126.117 486.044,124.366C486.082,120.011 486.063,115.655 486.066,111.299C486.067,110.873 486.066,110.446 486.066,109.948L488.832,109.948C488.857,110.326 488.903,110.707 488.903,111.089C488.908,115.244 488.929,119.4 488.887,123.556C488.877,124.541 488.754,125.552 488.502,126.503C487.582,129.962 484.986,132.062 481.4,132.16C479.945,132.199 478.431,132.106 477.032,131.739C473.932,130.925 472.03,128.654 471.906,125.44C471.712,120.418 471.736,115.387 471.673,110.36C471.672,110.25 471.74,110.139 471.8,109.951Z" style="fill:rgb(55,66,52);fill-rule:nonzero;"/>
        </g>
        <g transform="matrix(4.16667,0,0,4.16667,0,0)">
            <path d="M269.438,113.248C268.202,116.497 267.039,119.554 265.831,122.727L272.997,122.727C271.804,119.548 270.664,116.513 269.438,113.248ZM279.398,131.542C279.228,131.627 279.194,131.657 279.157,131.661C276.688,131.925 276.681,131.927 275.764,129.673C275.284,128.492 274.786,127.312 274.387,126.103C274.154,125.396 273.762,125.214 273.066,125.224C270.629,125.259 268.191,125.268 265.754,125.219C265.019,125.204 264.672,125.491 264.433,126.13C263.916,127.511 263.282,128.854 262.839,130.256C262.468,131.434 261.834,131.963 260.6,131.724C260.264,131.659 259.913,131.67 259.385,131.634C260.209,129.589 260.971,127.679 261.751,125.775C263.757,120.866 265.78,115.965 267.77,111.05C268.076,110.295 268.368,109.807 269.357,109.831C270.296,109.855 270.742,110.112 271.1,111.004C273.774,117.663 276.511,124.297 279.224,130.941C279.296,131.117 279.331,131.307 279.398,131.542Z" style="fill:rgb(55,66,52);fill-rule:nonzero;"/>
        </g>
        <g transform="matrix(4.16667,0,0,4.16667,0,0)">
            <path d="M512.026,109.927L525.06,109.927L525.06,112.258L514.684,112.258L514.684,119.173L523.857,119.173L523.857,121.61L514.689,121.61L514.689,129.253L525.756,129.253L525.756,131.642L512.026,131.642L512.026,109.927Z" style="fill:rgb(55,66,52);fill-rule:nonzero;"/>
        </g>
        <g transform="matrix(4.16667,0,0,4.16667,0,0)">
            <path d="M434.978,109.922L448.028,109.922L448.028,112.232L437.636,112.232L437.636,119.188L446.826,119.188L446.826,121.625L437.641,121.625L437.641,129.268L448.724,129.268L448.724,131.608L434.978,131.608L434.978,109.922Z" style="fill:rgb(55,66,52);fill-rule:nonzero;"/>
        </g>
        <g transform="matrix(4.16667,0,0,4.16667,0,0)">
            <path d="M387.809,129.3L387.809,131.624L374.045,131.624L374.045,109.986L387.084,109.986L387.084,112.223L376.702,112.223L376.702,119.22L385.883,119.22L385.883,121.574L376.707,121.574L376.707,129.3L387.809,129.3Z" style="fill:rgb(55,66,52);fill-rule:nonzero;"/>
        </g>
        <g transform="matrix(4.16667,0,0,4.16667,0,0)">
            <path d="M192.182,70.511L185.142,70.511L185.142,88.927L181.213,88.927L181.213,70.562L174.128,70.562L174.128,67.261L192.182,67.261L192.182,70.511Z" style="fill:rgb(55,66,52);fill-rule:nonzero;"/>
        </g>
        <g transform="matrix(4.16667,0,0,4.16667,0,0)">
            <path d="M179.078,131.66L176.513,131.66L176.513,109.982L179.056,109.982L179.056,120.511C179.957,119.625 180.683,118.965 181.349,118.248C183.791,115.617 186.205,112.96 188.654,110.335C188.872,110.101 189.254,109.921 189.574,109.897C190.401,109.836 191.236,109.877 192.304,109.877C191.823,110.481 191.492,110.959 191.099,111.378C188.425,114.232 185.76,117.096 183.037,119.903C182.378,120.583 182.361,120.987 183.046,121.645C186.099,124.577 189.108,127.556 192.129,130.522C192.428,130.815 192.703,131.133 193.151,131.615C191.242,131.774 189.763,131.946 188.391,130.434C185.762,127.537 182.894,124.857 180.122,122.09C179.849,121.817 179.557,121.562 179.078,121.117L179.078,131.66Z" style="fill:rgb(55,66,52);fill-rule:nonzero;"/>
        </g>
        <g transform="matrix(4.16667,0,0,4.16667,0,0)">
            <path d="M218.137,131.611C218.505,130.621 218.644,129.738 219.107,129.082C222.764,123.903 226.484,118.769 230.181,113.618C230.432,113.268 230.654,112.897 231.026,112.326L218.766,112.326L218.766,109.969L234.917,109.969C234.633,110.81 234.541,111.648 234.116,112.251C230.462,117.432 226.746,122.57 223.052,127.723C222.732,128.169 222.434,128.631 221.994,129.279L234.672,129.279L234.672,131.611L218.137,131.611Z" style="fill:rgb(55,66,52);fill-rule:nonzero;"/>
        </g>
        <g transform="matrix(4.16667,0,0,4.16667,0,0)">
            <path d="M300.621,109.942L316.392,109.942C316.821,110.794 316.52,111.522 316.009,112.234C312.31,117.383 308.614,122.536 304.92,127.689C304.598,128.14 304.293,128.604 303.854,129.244L316.496,129.244L316.496,131.637L300.09,131.637C300.36,130.748 300.416,129.848 300.859,129.218C304.345,124.26 307.907,119.355 311.442,114.432C311.882,113.819 312.304,113.193 312.884,112.36L300.621,112.36L300.621,109.942Z" style="fill:rgb(55,66,52);fill-rule:nonzero;"/>
        </g>
        <g transform="matrix(4.16667,0,0,4.16667,0,0)">
            <path d="M466.095,112.752C464.157,112.422 462.332,112.053 460.49,111.827C459.762,111.738 458.978,111.9 458.249,112.071C456.381,112.507 455.407,113.699 455.332,115.517C455.269,117.036 456.185,118.217 457.971,118.78C459.452,119.247 460.974,119.582 462.452,120.054C465.942,121.169 467.282,122.989 467.073,126.22C466.891,129.034 464.82,131.29 461.775,131.903C459.359,132.389 456.944,132.311 454.548,131.708C452.604,131.218 452.47,131.022 452.808,128.852C454.227,129.134 455.641,129.615 457.064,129.647C458.744,129.686 460.485,129.533 462.102,129.1C463.728,128.664 464.265,127.446 464.217,125.507C464.184,124.167 463.4,123.088 461.939,122.616C460.234,122.065 458.498,121.614 456.771,121.135C454.467,120.497 452.454,118.559 452.634,115.59C452.806,112.747 454.124,110.761 456.857,109.882C459.758,108.949 462.624,109.31 465.415,110.295C466.769,110.773 465.917,111.968 466.095,112.752Z" style="fill:rgb(55,66,52);fill-rule:nonzero;"/>
        </g>
        <g transform="matrix(4.16667,0,0,4.16667,0,0)">
            <path d="M295.691,112.732C293.67,112.405 291.804,112.035 289.919,111.831C289.155,111.748 288.331,111.95 287.572,112.157C285.863,112.624 284.97,113.832 284.931,115.568C284.899,117.01 285.762,118.195 287.391,118.726C288.942,119.232 290.545,119.576 292.1,120.073C295.532,121.17 296.839,122.941 296.674,126.151C296.526,129.021 294.413,131.314 291.325,131.915C288.862,132.395 286.409,132.294 283.98,131.672C282.21,131.218 282.021,130.873 282.434,128.858C283.819,129.131 285.201,129.577 286.598,129.633C288.203,129.697 289.867,129.602 291.422,129.23C293.168,128.813 293.828,127.592 293.817,125.696C293.808,124.127 293.064,123.108 291.375,122.566C289.632,122.006 287.843,121.587 286.102,121.023C283.794,120.275 282.409,118.558 282.264,116.621C281.982,112.839 283.611,111.066 285.723,110.161C288.822,108.832 291.986,109.222 295.061,110.315C296.356,110.776 295.502,111.966 295.691,112.732Z" style="fill:rgb(55,66,52);fill-rule:nonzero;"/>
        </g>
        <g transform="matrix(4.16667,0,0,4.16667,0,0)">
            <path d="M378.827,88.921L378.827,67.222L382.78,67.222L382.78,85.573L392.999,85.573L392.999,88.921L378.827,88.921Z" style="fill:rgb(55,66,52);fill-rule:nonzero;"/>
        </g>
        <g transform="matrix(4.16667,0,0,4.16667,0,0)">
            <path d="M545.505,109.98L545.505,112.232L538.371,112.232L538.371,131.641L535.535,131.641L535.535,112.305L528.364,112.305L528.364,109.98L545.505,109.98Z" style="fill:rgb(55,66,52);fill-rule:nonzero;"/>
        </g>
        <g transform="matrix(4.16667,0,0,4.16667,0,0)">
            <path d="M412.708,110.003C415.281,109.614 415.28,109.617 416.494,111.634C418.239,114.534 419.989,117.43 421.861,120.535C422.768,119.02 423.592,117.641 424.42,116.264C425.305,114.795 426.202,113.333 427.078,111.859C428.447,109.557 427.704,109.799 431.125,109.97C430.142,111.598 429.213,113.15 428.27,114.692C426.709,117.244 425.118,119.777 423.59,122.348C423.323,122.797 423.198,123.392 423.19,123.922C423.149,126.468 423.171,129.014 423.171,131.638L420.521,131.638C420.521,130.312 420.385,128.992 420.547,127.71C420.976,124.307 419.91,121.435 417.966,118.686C416.22,116.216 414.751,113.55 413.169,110.965C412.988,110.669 412.866,110.337 412.708,110.003Z" style="fill:rgb(55,66,52);fill-rule:nonzero;"/>
        </g>
        <g transform="matrix(4.16667,0,0,4.16667,0,0)">
            <rect x="313.815" y="67.246" width="3.862" height="21.706" style="fill:rgb(55,66,52);fill-rule:nonzero;"/>
        </g>
        <g transform="matrix(4.16667,0,0,4.16667,0,0)">
            <path d="M494.47,131.607L494.47,109.978L497.067,109.978L497.067,129.283L507.56,129.283L507.56,131.607L494.47,131.607Z" style="fill:rgb(55,66,52);fill-rule:nonzero;"/>
        </g>
        <g transform="matrix(4.16667,0,0,4.16667,0,0)">
            <path d="M504.074,85.771C505.793,85.64 507.393,85.621 508.959,85.377C512.107,84.887 514.041,83.002 514.552,79.969C514.716,78.996 514.71,77.974 514.641,76.984C514.456,74.322 513.14,72.387 510.661,71.348C508.553,70.464 506.33,70.478 504.074,70.612L504.074,85.771ZM500.054,66.987C503.557,67.205 507.013,67.15 510.373,67.69C515.783,68.56 518.893,72.566 518.892,78.047C518.891,83.668 515.851,87.604 510.353,88.5C506.995,89.046 503.543,89.015 500.054,89.249L500.054,66.987Z" style="fill:rgb(55,66,52);fill-rule:nonzero;"/>
        </g>
        <g transform="matrix(4.16667,0,0,4.16667,0,0)">
            <rect x="442.453" y="76.102" width="7.069" height="3.447" style="fill:rgb(55,66,52);fill-rule:nonzero;"/>
        </g>
        <g transform="matrix(4.16667,0,0,4.16667,0,0)">
            <path d="M542.426,61.877C541.245,63.294 540.442,64.654 539.273,65.52C538.506,66.087 537.209,65.94 536.15,66.113C536.083,66.006 536.016,65.9 535.949,65.793C536.714,64.573 537.467,63.345 538.259,62.143C538.363,61.986 538.666,61.894 538.879,61.889C539.943,61.863 541.007,61.877 542.426,61.877Z" style="fill:rgb(55,66,52);fill-rule:nonzero;"/>
        </g>
        <g transform="matrix(4.16667,0,0,4.16667,0,0)">
            <path d="M483.852,66.032C484.689,64.539 485.296,63.388 485.983,62.287C486.126,62.056 486.558,61.909 486.865,61.894C487.854,61.845 488.847,61.875 490.14,61.875C489.047,63.295 488.233,64.734 487.048,65.731C486.45,66.235 485.179,65.941 483.852,66.032Z" style="fill:rgb(55,66,52);fill-rule:nonzero;"/>
        </g>
        <g transform="matrix(4.16667,0,0,4.16667,0,0)">
            <path d="M530.771,66.055C531.597,64.582 532.251,63.371 532.96,62.193C533.069,62.011 533.424,61.898 533.67,61.891C534.701,61.857 535.733,61.877 537.074,61.877C535.977,63.299 535.186,64.732 534.008,65.692C533.363,66.217 532.067,65.943 530.771,66.055Z" style="fill:rgb(55,66,52);fill-rule:nonzero;"/>
        </g>
        <g transform="matrix(4.16667,0,0,4.16667,0,0)">
            <path d="M356.852,104.813C355.964,106.013 355.176,107.311 354.138,108.362C353.726,108.779 352.759,108.648 351.657,108.831C352.567,107.265 353.099,105.875 354.055,104.9C354.553,104.394 355.799,104.621 356.706,104.517C356.755,104.616 356.803,104.715 356.852,104.813Z" style="fill:rgb(55,66,52);fill-rule:nonzero;"/>
        </g>
        <g transform="matrix(4.16667,0,0,4.16667,0,0)">
            <path d="M206.127,105.13L209.142,105.13C209.025,106.103 209.158,107.158 208.712,107.825C208.47,108.186 206.826,108.189 206.548,107.812C206.096,107.2 206.247,106.144 206.127,105.13Z" style="fill:rgb(55,66,52);fill-rule:nonzero;"/>
        </g>
        <g transform="matrix(4.16667,0,0,4.16667,0,0)">
            <rect x="482.046" y="105.162" width="2.697" height="2.709" style="fill:rgb(55,66,52);fill-rule:nonzero;"/>
        </g>
        <g transform="matrix(4.16667,0,0,4.16667,0,0)">
            <rect x="200.047" y="105.152" width="2.485" height="2.707" style="fill:rgb(55,66,52);fill-rule:nonzero;"/>
        </g>
        <g transform="matrix(4.16667,0,0,4.16667,0,0)">
            <rect x="475.844" y="105.151" width="2.45" height="2.709" style="fill:rgb(55,66,52);fill-rule:nonzero;"/>
        </g>
    </g>
</svg>
